<svg width="300" height="300" viewBox="0 0 300 300" fill="none" xmlns="http://www.w3.org/2000/svg">
<g clip-path="url(#clip0_1_2)">
<rect width="300" height="300" fill="white"/>
<rect width="300" height="300" fill="#2d5a3d"/>
<path d="M67 241.841V194.565H84.1519V203.371C87.6762 198.852 94.255 192.711 102.126 192.711C110.232 192.711 115.636 197.694 115.636 202.908V241.841H98.4843V202.56C98.4843 196.187 94.1376 195.492 89.7908 199.2C88.851 200.011 85.5616 203.371 84.1519 205.341V241.841H67Z" fill="#F6ECDC"/>
<path d="M138.506 243C130.4 243 124.408 238.133 124.408 231.876C124.408 219.941 137.566 219.13 153.896 211.483V203.14C153.896 197.694 150.489 194.797 146.142 194.797C141.913 194.797 138.153 196.651 138.153 202.097C138.153 207.543 141.913 208.47 141.913 208.47C141.913 210.671 139.093 213.916 135.334 214.263C129.225 214.843 126.523 210.44 126.523 206.152C126.523 199.084 135.334 193.522 146.26 193.522C153.778 193.522 160.004 195.492 164.586 199.2C168.58 202.444 171.047 206.963 171.047 212.757V231.992C171.047 234.078 171.4 235.932 172.927 235.932C173.749 235.932 174.337 235.352 174.572 231.992L175.512 232.108C175.512 238.133 170.578 243 164.469 243C158.947 243 154.6 239.06 154.013 233.846C151.311 238.249 144.85 243 138.506 243ZM146.377 236.395C149.549 236.395 151.898 235.121 153.896 232.687V212.525C145.79 217.16 140.738 221.216 140.738 229.443C140.738 233.035 143.088 236.395 146.377 236.395Z" fill="#F6ECDC"/>
<path d="M184.364 241.841V170H201.516V203.371C205.04 198.852 211.619 192.711 219.49 192.711C227.596 192.711 233 197.694 233 202.908V241.841H215.848V202.56C215.848 196.187 211.501 195.492 207.155 199.2C206.215 200.011 202.925 203.371 201.516 205.341V241.841H184.364Z" fill="#F6ECDC"/>
<ellipse cx="195" cy="169.5" rx="21" ry="13.5" fill="#2d5a3d"/>
<path d="M92.0532 176C77.7357 176 66 164.724 66 150.746C66 137.121 77.3836 125.962 91.349 125.61C102.381 125.61 111.182 131.248 111.182 138.413C111.182 142.524 108.835 146.635 103.437 146.635C99.2119 146.635 95.8086 143.229 95.8086 140.762C95.8086 140.762 99.564 139.822 99.564 134.302C99.564 129.721 96.7474 126.902 92.1705 126.902C85.5986 126.902 82.8994 133.949 82.8994 143.816C82.8994 159.908 89.5887 168.248 98.8598 168.248C105.432 168.248 111.065 163.079 113.529 155.679L114.82 155.914C112.356 167.308 104.61 176 92.0532 176Z" fill="#F6ECDC"/>
<path d="M123.601 174.825V102H140.735V135.829C144.256 131.248 150.828 125.022 158.691 125.022C166.788 125.022 172.187 130.073 172.187 135.359V174.825H155.053V135.006C155.053 128.546 150.71 127.841 146.368 131.6C145.429 132.422 142.143 135.829 140.735 137.825V174.825H123.601Z" fill="#F6ECDC"/>
<path d="M195.033 176C186.935 176 180.95 171.067 180.95 164.724C180.95 152.625 194.094 151.803 210.406 144.051V135.594C210.406 130.073 207.003 127.137 202.661 127.137C198.436 127.137 194.681 129.016 194.681 134.537C194.681 140.057 198.436 140.997 198.436 140.997C198.436 143.229 195.619 146.517 191.864 146.87C185.762 147.457 183.062 142.994 183.062 138.648C183.062 131.483 191.864 125.844 202.778 125.844C210.289 125.844 216.509 127.841 221.086 131.6C225.076 134.889 227.54 139.47 227.54 145.343V164.841C227.54 166.956 227.893 168.835 229.418 168.835C230.24 168.835 230.826 168.248 231.061 164.841L232 164.959C232 171.067 227.071 176 220.968 176C215.453 176 211.111 172.006 210.524 166.721C207.825 171.184 201.37 176 195.033 176ZM202.896 169.305C206.064 169.305 208.411 168.013 210.406 165.546V145.108C202.309 149.806 197.262 153.917 197.262 162.257C197.262 165.898 199.61 169.305 202.896 169.305Z" fill="#F6ECDC"/>
<ellipse cx="131.5" cy="102" rx="20.5" ry="13" fill="#2d5a3d"/>
<path d="M67 106.821V58.7357H84.1299V67.6929C87.6497 63.0964 94.2201 56.85 102.081 56.85C109.59 56.85 114.753 61.2107 115.456 66.1607C119.211 61.8 125.077 56.85 132.117 56.85C140.213 56.85 145.61 61.9179 145.61 67.2214V106.821H128.48V66.8679C128.48 60.3857 124.139 59.6786 119.798 63.45C119.094 64.0393 117.099 66.0429 115.574 67.9286V106.821H98.4439V66.8679C98.4439 60.3857 94.1028 59.6786 89.7616 63.45C88.823 64.275 85.5378 67.6929 84.1299 69.6964V106.821H67Z" fill="#F6ECDC"/>
<path d="M168.434 108C160.338 108 154.354 103.05 154.354 96.6857C154.354 84.5464 167.495 83.7214 183.804 75.9429V67.4571C183.804 61.9179 180.401 58.9714 176.06 58.9714C171.836 58.9714 168.082 60.8571 168.082 66.3964C168.082 71.9357 171.836 72.8786 171.836 72.8786C171.836 75.1179 169.02 78.4179 165.266 78.7714C159.165 79.3607 156.466 74.8821 156.466 70.5214C156.466 63.3321 165.266 57.675 176.177 57.675C183.686 57.675 189.905 59.6786 194.481 63.45C198.47 66.75 200.934 71.3464 200.934 77.2393V96.8036C200.934 98.925 201.286 100.811 202.811 100.811C203.632 100.811 204.219 100.221 204.453 96.8036L205.392 96.9214C205.392 103.05 200.464 108 194.363 108C188.849 108 184.508 103.993 183.921 98.6893C181.223 103.168 174.769 108 168.434 108ZM176.295 101.282C179.463 101.282 181.809 99.9857 183.804 97.5107V77.0036C175.708 81.7179 170.663 85.8429 170.663 94.2107C170.663 97.8643 173.01 101.282 176.295 101.282Z" fill="#F6ECDC"/>
<path d="M235 59.9143H230.542V96.8036C230.542 98.925 230.894 100.811 232.419 100.811C233.24 100.811 233.827 100.221 234.061 96.8036L235 96.9214C235 103.05 230.072 108 223.971 108C217.987 108 213.412 103.286 213.412 97.3929V59.9143H208.367V58.7357H214.35C223.737 58.5 229.368 51.7821 229.368 42H230.542V58.7357H235V59.9143Z" fill="#F6ECDC"/>
<path d="M124.614 260.096C124.118 260.096 123.656 260.048 123.23 259.952C122.803 259.851 122.432 259.685 122.118 259.456C121.803 259.221 121.56 258.907 121.39 258.512L122.822 258.088C122.928 258.28 123.054 258.437 123.198 258.56C123.347 258.677 123.542 258.765 123.782 258.824C124.022 258.877 124.331 258.904 124.71 258.904C125.174 258.904 125.526 258.853 125.766 258.752C126.006 258.651 126.126 258.52 126.126 258.36C126.126 258.237 126.067 258.133 125.95 258.048C125.832 257.963 125.608 257.901 125.278 257.864L123.734 257.672C123.019 257.581 122.486 257.405 122.134 257.144C121.782 256.883 121.606 256.52 121.606 256.056C121.606 255.645 121.728 255.307 121.974 255.04C122.219 254.768 122.566 254.565 123.014 254.432C123.467 254.293 123.995 254.224 124.598 254.224C125.035 254.224 125.451 254.269 125.846 254.36C126.246 254.451 126.6 254.605 126.91 254.824C127.224 255.043 127.472 255.349 127.654 255.744L126.286 256.168C126.126 255.869 125.899 255.669 125.606 255.568C125.318 255.467 124.939 255.416 124.47 255.416C124.075 255.416 123.758 255.459 123.518 255.544C123.283 255.624 123.166 255.741 123.166 255.896C123.166 256.029 123.23 256.136 123.358 256.216C123.491 256.296 123.707 256.355 124.006 256.392L125.702 256.6C126.395 256.685 126.902 256.864 127.222 257.136C127.542 257.408 127.702 257.768 127.702 258.216C127.702 258.632 127.574 258.981 127.318 259.264C127.062 259.541 126.702 259.749 126.238 259.888C125.774 260.027 125.232 260.096 124.614 260.096Z" fill="#F6ECDC"/>
<path d="M128.405 260V254.32H130.005V260H128.405Z" fill="#F6ECDC"/>
<path d="M130.937 260V254.32H132.577L135.297 257.504H135.305V254.32H136.793V260H135.569L132.433 256.336H132.425V260H130.937Z" fill="#F6ECDC"/>
<path d="M141.022 260.104C140.339 260.104 139.731 259.984 139.198 259.744C138.67 259.499 138.254 259.157 137.95 258.72C137.651 258.277 137.502 257.757 137.502 257.16C137.502 256.563 137.651 256.045 137.95 255.608C138.254 255.171 138.67 254.832 139.198 254.592C139.731 254.352 140.339 254.232 141.022 254.232C141.619 254.232 142.145 254.317 142.598 254.488C143.051 254.659 143.425 254.893 143.718 255.192C144.011 255.485 144.209 255.816 144.31 256.184L142.878 256.528C142.766 256.251 142.617 256.035 142.43 255.88C142.243 255.72 142.03 255.608 141.79 255.544C141.555 255.48 141.307 255.448 141.046 255.448C140.694 255.448 140.371 255.509 140.078 255.632C139.785 255.749 139.55 255.928 139.374 256.168C139.203 256.408 139.118 256.712 139.118 257.08V257.24C139.118 257.603 139.203 257.907 139.374 258.152C139.55 258.392 139.785 258.573 140.078 258.696C140.371 258.813 140.694 258.872 141.046 258.872C141.307 258.872 141.555 258.84 141.79 258.776C142.03 258.712 142.243 258.603 142.43 258.448C142.617 258.288 142.766 258.069 142.878 257.792L144.31 258.136C144.209 258.504 144.011 258.837 143.718 259.136C143.425 259.429 143.051 259.664 142.598 259.84C142.145 260.016 141.619 260.104 141.022 260.104Z" fill="#F6ECDC"/>
<path d="M144.937 260V254.32H150.217V255.504H146.537V256.56H149.857V257.696H146.537V258.816H150.273V260H144.937Z" fill="#F6ECDC"/>
<path d="M152.756 260V258.936L155.908 257.016C156.158 256.861 156.329 256.72 156.42 256.592C156.51 256.464 156.556 256.325 156.556 256.176C156.556 255.936 156.446 255.752 156.228 255.624C156.014 255.496 155.745 255.432 155.42 255.432C155.078 255.432 154.804 255.493 154.596 255.616C154.393 255.739 154.241 255.899 154.14 256.096C154.038 256.293 153.972 256.501 153.94 256.72L152.532 256.424C152.585 255.987 152.734 255.605 152.98 255.28C153.225 254.949 153.561 254.691 153.988 254.504C154.42 254.317 154.934 254.224 155.532 254.224C156.076 254.224 156.55 254.301 156.956 254.456C157.361 254.605 157.673 254.816 157.892 255.088C158.116 255.36 158.228 255.677 158.228 256.04C158.228 256.36 158.153 256.637 158.004 256.872C157.86 257.107 157.676 257.312 157.452 257.488C157.228 257.659 156.998 257.811 156.764 257.944L155.236 258.816H158.324V260H152.756Z" fill="#F6ECDC"/>
<path d="M162.293 260.096C161.791 260.096 161.335 260.024 160.925 259.88C160.514 259.731 160.159 259.525 159.861 259.264C159.562 259.003 159.333 258.693 159.173 258.336C159.013 257.979 158.933 257.589 158.933 257.168C158.933 256.741 159.013 256.349 159.173 255.992C159.333 255.635 159.562 255.325 159.861 255.064C160.159 254.797 160.514 254.592 160.925 254.448C161.335 254.299 161.791 254.224 162.293 254.224C162.794 254.224 163.25 254.299 163.661 254.448C164.071 254.592 164.426 254.797 164.725 255.064C165.023 255.325 165.253 255.635 165.413 255.992C165.573 256.349 165.653 256.741 165.653 257.168C165.653 257.589 165.573 257.979 165.413 258.336C165.253 258.693 165.023 259.003 164.725 259.264C164.426 259.525 164.071 259.731 163.661 259.88C163.25 260.024 162.794 260.096 162.293 260.096ZM162.293 258.896C162.799 258.896 163.205 258.749 163.509 258.456C163.818 258.163 163.973 257.749 163.973 257.216V257.104C163.973 256.571 163.818 256.157 163.509 255.864C163.205 255.571 162.799 255.424 162.293 255.424C161.791 255.424 161.386 255.571 161.077 255.864C160.767 256.157 160.613 256.571 160.613 257.104V257.216C160.613 257.749 160.767 258.163 161.077 258.456C161.386 258.749 161.791 258.896 162.293 258.896Z" fill="#F6ECDC"/>
<path d="M166.349 260V258.936L169.501 257.016C169.752 256.861 169.923 256.72 170.013 256.592C170.104 256.464 170.149 256.325 170.149 256.176C170.149 255.936 170.04 255.752 169.821 255.624C169.608 255.496 169.339 255.432 169.013 255.432C168.672 255.432 168.397 255.493 168.189 255.616C167.987 255.739 167.835 255.899 167.733 256.096C167.632 256.293 167.565 256.501 167.533 256.72L166.125 256.424C166.179 255.987 166.328 255.605 166.573 255.28C166.819 254.949 167.155 254.691 167.581 254.504C168.013 254.317 168.528 254.224 169.125 254.224C169.669 254.224 170.144 254.301 170.549 254.456C170.955 254.605 171.267 254.816 171.485 255.088C171.709 255.36 171.821 255.677 171.821 256.04C171.821 256.36 171.747 256.637 171.597 256.872C171.453 257.107 171.269 257.312 171.045 257.488C170.821 257.659 170.592 257.811 170.357 257.944L168.829 258.816H171.917V260H166.349Z" fill="#F6ECDC"/>
<path d="M175.486 260.096C174.889 260.096 174.382 260.027 173.966 259.888C173.556 259.744 173.23 259.547 172.99 259.296C172.75 259.045 172.585 258.76 172.494 258.44L173.902 258.144C173.95 258.267 174.025 258.387 174.126 258.504C174.233 258.621 174.393 258.717 174.606 258.792C174.82 258.861 175.113 258.896 175.486 258.896C175.945 258.896 176.297 258.827 176.542 258.688C176.793 258.549 176.918 258.344 176.918 258.072C176.918 257.8 176.79 257.589 176.534 257.44C176.278 257.285 175.937 257.208 175.51 257.208C175.089 257.208 174.758 257.259 174.518 257.36C174.278 257.456 174.094 257.589 173.966 257.76L172.654 257.624L172.886 254.32H177.918V255.504H174.182L174.118 256.496C174.31 256.379 174.54 256.288 174.806 256.224C175.078 256.155 175.406 256.12 175.79 256.12C176.35 256.12 176.83 256.2 177.23 256.36C177.63 256.52 177.937 256.747 178.15 257.04C178.364 257.328 178.47 257.667 178.47 258.056C178.47 258.408 178.356 258.741 178.126 259.056C177.902 259.365 177.569 259.616 177.126 259.808C176.684 260 176.137 260.096 175.486 260.096Z" fill="#F6ECDC"/>
</g>
<defs>
<clipPath id="clip0_1_2">
<rect width="300" height="300" fill="white"/>
</clipPath>
</defs>
</svg>
